# xmcd
#
# Track frame offsets: 
#        150
#        29962
#        53822
#        69017
#        91732
#        104507
#        117662
#        135757
#        165207
#        186495
#        208907
#        228137
#        246177
#        266310
#
# Disc length: 4440 seconds
#
# Revision: 5
# Processed by: cddbd v1.5.2PL0 Copyright (c) Steve Scherf et al.
# Submitted via: ExactAudioCopy v1.0b3
#
DISCID=bb11560e
DTITLE=Mozdzer Danielsson Fresco - The Time
DYEAR=2005
DGENRE=Jazz
TTITLE0=Asta
TTITLE1=Incognitor
TTITLE2=Sortorello
TTITLE3=Tsunami
TTITLE4=The Time
TTITLE5=Asta II
TTITLE6=Easy Money
TTITLE7=Smells Like Teen Spirit
TTITLE8=Svantetic
TTITLE9=Suffering
TTITLE10=Trip To Bexbach
TTITLE11=Asta III
TTITLE12=Suffering
TTITLE13=Digital player track
EXTD=
EXTT0=
EXTT1=
EXTT2=
EXTT3=
EXTT4=
EXTT5=
EXTT6=
EXTT7=
EXTT8=
EXTT9=
EXTT10=
EXTT11=
EXTT12=
EXTT13=
PLAYORDER=
